<svg width="29" height="28" viewBox="0 0 29 28" fill="none" xmlns="http://www.w3.org/2000/svg">
<path d="M14.3401 0.349868C17.0497 0.345915 19.6997 1.14554 21.9548 2.64763C24.21 4.14971 25.9691 6.2868 27.0097 8.78863C28.0502 11.2905 28.3255 14.0447 27.8008 16.703C27.2761 19.3613 25.9748 21.8043 24.0617 23.7231C22.1485 25.6418 19.7093 26.9502 17.0525 27.4827C14.3957 28.0152 11.6407 27.7479 9.13588 26.7146C6.63102 25.6814 4.48878 23.9285 2.98012 21.6778C1.47145 19.427 0.664129 16.7795 0.660171 14.0699C0.657543 12.2708 1.00926 10.4888 1.69533 8.82558C2.38139 7.16242 3.38828 5.65066 4.65858 4.37664C5.92889 3.10262 7.43774 2.09129 9.09889 1.40037C10.76 0.709456 12.541 0.352493 14.3401 0.349868ZM14.3401 26.1199C16.728 26.1218 19.063 25.416 21.0499 24.0916C23.0369 22.7672 24.5868 20.8836 25.5038 18.6788C26.4208 16.474 26.6638 14.0468 26.202 11.704C25.7403 9.36114 24.5946 7.2077 22.9096 5.5157C21.2245 3.8237 19.0758 2.66906 16.7349 2.19763C14.394 1.7262 11.9659 1.95914 9.75734 2.86702C7.54874 3.7749 5.65867 5.31699 4.32606 7.29848C2.99346 9.27997 2.27806 11.612 2.27016 13.9999C2.26224 15.5903 2.56896 17.1667 3.17274 18.6381C3.77652 20.1095 4.66544 21.447 5.78822 22.5735C6.91101 23.7 8.24556 24.5933 9.71498 25.2019C11.1844 25.8106 12.7596 26.1225 14.3501 26.1199H14.3401Z" fill="#45CFCC"/>
<path d="M14.33 25.0698C12.6111 25.0613 10.918 24.6519 9.38513 23.8742C7.85227 23.0964 6.52197 21.9719 5.5 20.5898C5.43184 20.5144 5.39404 20.4164 5.39404 20.3148C5.39404 20.2132 5.43184 20.1152 5.5 20.0398C5.89173 19.4163 6.42659 18.8952 7.06006 18.5198C8.23921 17.728 9.49564 17.0579 10.8101 16.5198C11.0318 16.4347 11.2457 16.331 11.45 16.2098C11.7152 16.064 11.9123 15.8194 11.9984 15.5293C12.0845 15.2391 12.0528 14.9267 11.91 14.6598C11.7747 14.4043 11.6139 14.163 11.4301 13.9398C10.4416 12.7304 9.7897 11.2817 9.54004 9.7398C9.31351 8.48296 9.45583 7.18741 9.94995 6.00979C10.2718 5.25923 10.7937 4.61145 11.4585 4.13709C12.1233 3.66274 12.9055 3.38003 13.72 3.3198C14.7395 3.16377 15.7825 3.30978 16.72 3.7398C17.4023 4.05888 17.9928 4.54519 18.4369 5.15359C18.8809 5.76198 19.1641 6.47272 19.26 7.2198C19.4487 8.28616 19.4155 9.37996 19.1626 10.4329C18.9097 11.4859 18.4424 12.4754 17.79 13.3398C17.57 13.6598 17.33 13.9598 17.13 14.2898C17.0053 14.494 16.9142 14.7168 16.86 14.9498C16.7656 15.199 16.7676 15.4745 16.8656 15.7224C16.9636 15.9702 17.1507 16.1726 17.39 16.2898C17.8309 16.5354 18.2887 16.7493 18.76 16.9298C19.8846 17.3438 20.9555 17.891 21.95 18.5598C22.5078 18.9291 22.9732 19.4218 23.3101 19.9998C23.372 20.0722 23.406 20.1645 23.406 20.2598C23.406 20.3551 23.372 20.4473 23.3101 20.5198C22.2834 21.9382 20.933 23.091 19.3711 23.8823C17.8092 24.6737 16.0809 25.0808 14.33 25.0698Z" fill="#45CFCC"/>
</svg>
