<svg width="1600" height="700" viewBox="0 0 1600 700" fill="none" xmlns="http://www.w3.org/2000/svg">
<path d="M1600 0H0V700H1600V0Z" fill="#D8F5F5" fill-opacity="0.5"/>
<path opacity="0.48" d="M1123.59 416.119C945.303 489.393 871.235 597.065 846 699H1600V368.369C1590.67 365.119 1581 362.606 1571.1 360.864C1469.27 342.837 1311.37 338.946 1123.59 416.119Z" fill="#45C8C5" fill-opacity="0.5"/>
<path opacity="0.24" d="M220.656 688.181C177.982 635.702 174.624 579.515 347.217 528.839C492.126 486.289 567 513.495 567 513.495C567 513.495 512.846 442.435 301.507 358.629C287.115 352.964 270.273 349.964 253.07 350C235.868 350.037 219.062 353.109 204.736 358.834C101.571 399.847 38.86 480.904 0 571.347V700H230.883C227.682 696.577 224.622 693.075 221.7 689.47L220.656 688.181Z" fill="#45C8C5"/>
<path opacity="0.24" d="M1056.04 212.804C1150.73 150.085 1221.38 75.153 1274 0H417C505.546 150.859 726.265 431.069 1056.04 212.804Z" fill="#45C8C5"/>
</svg>
