<svg width="156" height="155" viewBox="0 0 156 155" fill="none" xmlns="http://www.w3.org/2000/svg">
<path d="M78.4805 155C121.283 155 155.98 120.302 155.98 77.5C155.98 34.6979 121.283 0 78.4805 0C35.6784 0 0.980469 34.6979 0.980469 77.5C0.980469 120.302 35.6784 155 78.4805 155Z" fill="#45CFCC"/>
<path d="M91.3251 48.3117C91.3251 47.753 91.6045 47.4736 92.1632 47.4736H98.5328C99.0915 47.4736 99.3709 47.753 99.3709 48.3117V105.303C99.3709 105.861 99.0915 106.141 98.5328 106.141H92.1632C91.6045 106.141 91.3251 105.861 91.3251 105.303V80.411C91.3251 80.1875 91.2133 80.0757 90.9899 80.0757H67.104C66.8805 80.0757 66.7688 80.1875 66.7688 80.411V105.303C66.7688 105.861 66.4894 106.141 65.9307 106.141H59.5611C59.0024 106.141 58.723 105.861 58.723 105.303V48.3117C58.723 47.753 59.0024 47.4736 59.5611 47.4736H65.9307C66.4894 47.4736 66.7688 47.753 66.7688 48.3117V72.7842C66.7688 73.0077 66.8805 73.1195 67.104 73.1195H90.9899C91.2133 73.1195 91.3251 73.0077 91.3251 72.7842V48.3117Z" fill="white"/>
</svg>
