<svg width="249" height="66" viewBox="0 0 249 66" fill="none" xmlns="http://www.w3.org/2000/svg">
    <path d="M84.88 29.7301C84.88 26.7701 85.09 24.4101 85.5 22.6501C85.91 20.9001 86.5 19.3901 87.28 18.1401C88.05 16.8901 89.02 15.6601 90.19 14.4501C91.35 13.2401 92.69 11.7001 94.19 9.83007C95.92 8.78007 97.68 7.89007 99.46 7.16007C101.24 6.43007 103.18 6.07007 105.27 6.07007C107.05 6.07007 108.64 6.26007 110.06 6.65007C111.47 7.04007 112.83 7.53007 114.13 8.12007C115.43 8.71007 116.72 9.37007 117.99 10.1001C119.27 10.8301 120.63 11.5601 122.09 12.2901C122.68 12.6101 123.02 13.1201 123.12 13.8301C123.21 14.5401 123.26 15.1901 123.26 15.7801V17.0101C123.03 17.2401 122.74 17.3501 122.37 17.3501C122 17.3501 121.66 17.3501 121.34 17.3501C120.11 17.3501 118.95 17.1101 117.85 16.6301C116.75 16.1501 115.66 15.6301 114.57 15.0601C113.48 14.4901 112.35 13.9701 111.18 13.4901C110.02 13.0101 108.75 12.7701 107.38 12.7701C104.92 12.7701 102.66 13.1801 100.61 14.0001C98.56 14.8201 96.79 15.9601 95.31 17.4201C93.83 18.8801 92.68 20.6301 91.86 22.6901C91.04 24.7501 90.63 27.0201 90.63 29.5301C90.63 31.6301 90.95 33.4801 91.59 35.0701C92.23 36.6701 93.12 38.0301 94.26 39.1701C95.4 40.3101 96.77 41.2501 98.36 41.9701C99.96 42.7001 101.71 43.2501 103.63 43.6101C104.13 43.5601 104.7 43.5901 105.34 43.6801C105.98 43.7701 106.57 43.8201 107.12 43.8201C109.54 43.8201 111.87 43.5501 114.13 43.0001C116.39 42.4501 118.38 41.2501 120.11 39.3701H120.86C121.32 39.3701 121.78 39.4501 122.26 39.6101C122.74 39.7701 123.18 40.0001 123.59 40.2901C124 40.5901 124.34 40.9401 124.62 41.3501C124.89 41.7601 125.03 42.2201 125.03 42.7201C125.03 43.8101 124.36 44.7601 123.01 45.5601C121.66 46.3601 120.08 47.0201 118.26 47.5401C116.44 48.0601 114.61 48.4401 112.79 48.6701C110.97 48.9001 109.55 49.0101 108.55 49.0101C105.54 49.0101 102.61 48.6501 99.76 47.9201C96.91 47.1901 94.38 46.0501 92.17 44.5001C89.96 42.9501 88.19 40.9601 86.87 38.5201C85.54 36.0801 84.88 33.1501 84.88 29.7301Z" fill="white"/>
    <path d="M152.88 46.08C152.74 44.94 152.61 43.74 152.47 42.49C152.33 41.24 152.14 39.99 151.89 38.76C151.64 37.53 151.3 36.36 150.86 35.24C150.43 34.12 149.84 33.14 149.12 32.3C148.39 31.46 147.49 30.78 146.42 30.28C145.35 29.78 144.06 29.53 142.56 29.53C141.74 29.53 141 29.71 140.34 30.08C139.68 30.45 139.12 30.91 138.66 31.48C138.2 32.05 137.84 32.71 137.57 33.46C137.3 34.21 137.11 34.95 137.02 35.68C137.02 35.91 137.01 36.32 136.99 36.91C136.97 37.5 136.94 38.13 136.92 38.79C136.9 39.45 136.87 40.08 136.85 40.67C136.83 41.26 136.82 41.67 136.82 41.9V41.97C136.82 42.43 136.85 42.86 136.92 43.27C136.99 43.68 137.02 44.09 137.02 44.5C137.02 44.91 137 45.36 136.95 45.83C136.9 46.31 136.8 46.75 136.64 47.16C136.48 47.57 136.25 47.92 135.96 48.22C135.66 48.52 135.26 48.66 134.76 48.66C134.3 48.66 133.92 48.52 133.6 48.25C133.28 47.98 133.02 47.63 132.81 47.22C132.6 46.81 132.44 46.39 132.33 45.95C132.22 45.52 132.14 45.12 132.09 44.75L130.45 29.09C130.31 28.63 130.13 27.82 129.9 26.66C129.67 25.5 129.44 24.27 129.22 22.97C128.99 21.67 128.78 20.44 128.57 19.28C128.36 18.12 128.22 17.31 128.13 16.85C128.08 16.44 128.02 15.87 127.93 15.14C127.84 14.41 127.75 13.66 127.66 12.88C127.57 12.11 127.49 11.41 127.42 10.79C127.35 10.17 127.32 9.78 127.32 9.59V8.43C127.32 8.11 127.58 7.92 128.11 7.85C128.63 7.78 128.99 7.75 129.17 7.75C129.53 7.75 129.96 7.77 130.44 7.82C130.92 7.87 131.2 8.14 131.3 8.64L133.56 24.71L134.59 28.75C135.36 28.11 136.03 27.52 136.57 26.97C137.12 26.42 137.66 25.96 138.21 25.57C138.76 25.18 139.38 24.89 140.09 24.68C140.8 24.48 141.74 24.37 142.93 24.37C145.03 24.37 146.84 24.72 148.37 25.43C149.9 26.14 151.2 27.08 152.27 28.27C153.34 29.46 154.21 30.82 154.87 32.37C155.53 33.92 156.08 35.55 156.51 37.26C156.94 38.97 157.27 40.7 157.5 42.46C157.73 44.22 157.96 45.89 158.18 47.49V47.69C158.18 47.87 158.05 48.04 157.8 48.2C157.55 48.36 157.26 48.5 156.95 48.61C156.63 48.72 156.31 48.81 155.99 48.88C155.67 48.95 155.42 48.98 155.24 48.98C154.46 48.98 153.92 48.65 153.6 47.99C153.24 47.37 153.01 46.72 152.88 46.08Z" fill="white"/>
    <path d="M170.25 48.6801C168.88 48.1801 167.58 47.6301 166.35 47.0401C165.12 46.4501 164.02 45.7301 163.07 44.8901C162.11 44.0501 161.36 43.0401 160.81 41.8801C160.26 40.7201 159.99 39.3201 159.99 37.6701C159.99 36.5301 160.21 35.1801 160.64 33.6301C161.07 32.0801 161.69 30.6201 162.49 29.2501C163.29 27.8801 164.27 26.7201 165.43 25.7601C166.59 24.8001 167.93 24.3201 169.43 24.3201H174.56C174.88 24.4101 175.18 24.5001 175.45 24.5901C175.68 24.6801 175.93 24.7601 176.2 24.8301C176.47 24.9001 176.72 24.9601 176.95 25.0001C177 25.0001 177.08 25.0201 177.19 25.0701C177.3 25.1201 177.38 25.1401 177.43 25.1401C179.39 26.7401 180.37 28.7001 180.37 31.0201C180.37 33.0701 179.88 34.6801 178.9 35.8401C177.92 37.0001 176.7 37.8901 175.24 38.5101C173.78 39.1301 172.18 39.5301 170.45 39.7101C168.72 39.8901 167.07 40.0101 165.53 40.0501C165.71 40.9601 166.11 41.6901 166.73 42.2401C167.35 42.7901 168.06 43.2001 168.88 43.4701C169.7 43.7401 170.57 43.9301 171.48 44.0201C172.39 44.1101 173.23 44.1601 174.01 44.1601C175.42 44.1601 176.8 44.0101 178.15 43.7201C179.49 43.4201 180.85 43.2801 182.22 43.2801C182.81 43.2801 183.23 43.6001 183.49 44.2401C183.74 44.8801 183.87 45.4001 183.87 45.8101C183.87 46.6301 183.56 47.2601 182.95 47.6901C182.33 48.1201 181.62 48.4401 180.8 48.6501C179.98 48.8501 179.13 48.9701 178.27 48.9901C177.4 49.0101 176.72 49.0201 176.22 49.0201C175.67 49.0201 175.18 49.0201 174.75 49.0201C174.32 49.0201 173.88 49.0001 173.45 48.9501C173.02 48.9101 172.55 48.8701 172.05 48.8501C171.53 48.8301 170.93 48.7701 170.25 48.6801ZM165.39 36.1601C165.89 36.3401 166.31 36.4301 166.66 36.4301C167 36.4301 167.42 36.4301 167.93 36.4301C168.57 36.4301 169.39 36.3201 170.39 36.0901C171.39 35.8601 172.36 35.5301 173.3 35.1001C174.23 34.6701 175.03 34.1201 175.69 33.4601C176.35 32.8001 176.68 32.0601 176.68 31.2401C176.68 30.6001 176.37 29.9501 175.76 29.2901C175.14 28.6301 174.49 28.3001 173.81 28.3001C172.67 28.3001 171.6 28.4601 170.6 28.7801C169.6 29.1001 168.71 29.5701 167.93 30.1801C167.15 30.8001 166.54 31.5701 166.08 32.5101C165.62 33.4501 165.4 34.5101 165.4 35.6901V36.1601H165.39Z" fill="white"/>
    <path d="M184.61 13.7901C184.61 13.3301 184.64 12.8401 184.71 12.3201C184.78 11.8001 184.91 11.3201 185.12 10.8801C185.33 10.4501 185.6 10.0801 185.94 9.7901C186.28 9.4901 186.75 9.3501 187.34 9.3501C187.93 9.3501 188.42 9.6101 188.81 10.1401C189.2 10.6601 189.52 11.3501 189.77 12.1901C190.02 13.0301 190.2 13.9701 190.32 14.9901C190.43 16.0201 190.53 17.0401 190.59 18.0701C190.66 19.1001 190.73 20.0701 190.79 20.9801C190.86 21.8901 190.94 22.6201 191.03 23.1701C191.17 23.5401 191.36 24.1601 191.61 25.0501C191.86 25.9401 192.13 26.8901 192.43 27.8901C192.73 28.8901 193 29.8301 193.25 30.6901C193.5 31.5601 193.67 32.1701 193.76 32.5401C193.81 32.6801 193.87 32.9501 193.97 33.3601C194.06 33.7701 194.11 34.0201 194.11 34.1101L195.2 43.0701V46.9001C195.2 47.4001 194.96 47.8801 194.48 48.3401C194 48.8001 193.51 49.0201 193.01 49.0201C192.37 49.0201 191.71 48.2501 191.03 46.6901C190.35 45.1401 189.7 43.1701 189.08 40.7701C188.46 38.3801 187.88 35.7501 187.34 32.9001C186.79 30.0501 186.31 27.3301 185.9 24.7301C185.49 22.1301 185.17 19.8301 184.94 17.8201C184.73 15.8201 184.61 14.4801 184.61 13.7901Z" fill="white"/>
    <path d="M197.06 13.7901C197.06 13.3301 197.09 12.8401 197.16 12.3201C197.23 11.8001 197.36 11.3201 197.57 10.8801C197.78 10.4501 198.05 10.0801 198.39 9.7901C198.73 9.4901 199.2 9.3501 199.79 9.3501C200.38 9.3501 200.87 9.6101 201.26 10.1401C201.65 10.6601 201.97 11.3501 202.22 12.1901C202.47 13.0301 202.65 13.9701 202.77 14.9901C202.88 16.0201 202.98 17.0401 203.04 18.0701C203.11 19.1001 203.18 20.0701 203.24 20.9801C203.31 21.8901 203.39 22.6201 203.48 23.1701C203.62 23.5401 203.81 24.1601 204.06 25.0501C204.31 25.9401 204.58 26.8901 204.88 27.8901C205.18 28.8901 205.45 29.8301 205.7 30.6901C205.95 31.5601 206.12 32.1701 206.21 32.5401C206.26 32.6801 206.32 32.9501 206.42 33.3601C206.51 33.7701 206.56 34.0201 206.56 34.1101L207.65 43.0701V46.9001C207.65 47.4001 207.41 47.8801 206.93 48.3401C206.45 48.8001 205.96 49.0201 205.46 49.0201C204.82 49.0201 204.16 48.2501 203.48 46.6901C202.8 45.1401 202.15 43.1701 201.53 40.7701C200.91 38.3801 200.33 35.7501 199.79 32.9001C199.24 30.0501 198.76 27.3301 198.35 24.7301C197.94 22.1301 197.62 19.8301 197.39 17.8201C197.17 15.8201 197.06 14.4801 197.06 13.7901Z" fill="white"/>
    <path d="M230.71 41.1501C229.52 43.4801 228.09 45.3001 226.4 46.6201C224.71 47.9401 222.5 48.6001 219.76 48.6001C218.16 48.6001 216.73 48.2601 215.45 47.5701C214.17 46.8901 213.09 45.9701 212.2 44.8301C211.31 43.6901 210.64 42.4101 210.18 41.0001C209.72 39.5901 209.5 38.1301 209.5 36.6201C209.5 34.9801 209.75 33.4201 210.25 31.9301C210.75 30.4501 211.46 29.1401 212.37 28.0001C213.28 26.8601 214.41 25.9601 215.76 25.3001C217.1 24.6401 218.62 24.3101 220.31 24.3101C222.09 24.3101 223.65 24.6101 225 25.2001C226.34 25.7901 227.53 26.5901 228.56 27.5901C229.59 28.5901 230.48 29.7301 231.23 31.0101C231.98 32.2901 232.68 33.6201 233.32 35.0101C233.96 36.4001 234.57 37.7801 235.17 39.1501C235.76 40.5201 236.38 41.8001 237.02 42.9801C237.25 43.3901 237.54 43.7601 237.91 44.0701C238.27 44.3901 238.64 44.7001 239 44.9901C239.36 45.2901 239.67 45.6201 239.92 45.9801C240.17 46.3501 240.3 46.7801 240.3 47.2801C240.3 48.1901 239.92 48.8901 239.17 49.3701C238.42 49.8501 237.65 50.0901 236.88 50.0901C236.61 50.0901 236.24 50.0401 235.79 49.9501C235.33 49.8601 235.01 49.6301 234.83 49.2701L230.86 41.3401L230.71 41.1501ZM214.3 36.8501C214.3 37.6701 214.38 38.5501 214.54 39.4801C214.7 40.4201 214.98 41.2801 215.39 42.0801C215.8 42.8801 216.35 43.5401 217.03 44.0601C217.71 44.5801 218.58 44.8501 219.63 44.8501C220.63 44.8501 221.61 44.6301 222.57 44.2001C223.53 43.7701 224.41 43.2101 225.2 42.5201C226 41.8401 226.68 41.0501 227.25 40.1601C227.82 39.2701 228.2 38.3501 228.38 37.3901C228.29 36.3001 228.07 35.2001 227.73 34.1101C227.39 33.0201 226.91 32.0201 226.29 31.1301C225.67 30.2401 224.9 29.5101 223.96 28.9401C223.02 28.3701 221.87 28.0901 220.51 28.0901C219.32 28.0901 218.33 28.3501 217.53 28.8801C216.73 29.4001 216.09 30.0801 215.61 30.9001C215.13 31.7201 214.79 32.6601 214.58 33.7001C214.4 34.7501 214.3 35.8001 214.3 36.8501Z" fill="white"/>
    <path d="M237.49 13.7901C237.49 13.3301 237.52 12.8401 237.59 12.3201C237.66 11.8001 237.79 11.3201 238 10.8801C238.21 10.4501 238.48 10.0801 238.82 9.7901C239.16 9.4901 239.63 9.3501 240.22 9.3501C240.81 9.3501 241.3 9.6101 241.69 10.1401C242.08 10.6601 242.4 11.3501 242.65 12.1901C242.9 13.0301 243.08 13.9701 243.2 14.9901C243.31 16.0201 243.41 17.0401 243.47 18.0701C243.54 19.1001 243.61 20.0701 243.67 20.9801C243.74 21.8901 243.82 22.6201 243.91 23.1701C244.05 23.5401 244.24 24.1601 244.49 25.0501C244.74 25.9401 245.01 26.8901 245.31 27.8901C245.61 28.8901 245.88 29.8301 246.13 30.6901C246.38 31.5601 246.55 32.1701 246.64 32.5401C246.69 32.6801 246.75 32.9501 246.85 33.3601C246.94 33.7701 246.99 34.0201 246.99 34.1101L248.08 43.0701V46.9001C248.08 47.4001 247.84 47.8801 247.36 48.3401C246.88 48.8001 246.39 49.0201 245.89 49.0201C245.25 49.0201 244.59 48.2501 243.91 46.6901C243.23 45.1401 242.58 43.1701 241.96 40.7701C241.34 38.3801 240.76 35.7501 240.22 32.9001C239.67 30.0501 239.19 27.3301 238.78 24.7301C238.37 22.1301 238.05 19.8301 237.82 17.8201C237.6 15.8201 237.49 14.4801 237.49 13.7901Z" fill="white"/>
    <path d="M89.26 65.4201V58.5601H91.94C92.54 58.5601 93.05 58.6501 93.48 58.8401C93.9 59.0301 94.23 59.3001 94.46 59.6601C94.69 60.0201 94.8 60.4501 94.8 60.9401C94.8 61.4401 94.69 61.8601 94.46 62.2201C94.23 62.5801 93.9 62.8501 93.48 63.0401C93.06 63.2301 92.54 63.3301 91.94 63.3301H89.8L90.24 62.8701V65.4101H89.26V65.4201ZM90.24 62.9801L89.8 62.4901H91.91C92.54 62.4901 93.01 62.3601 93.34 62.0901C93.66 61.8201 93.83 61.4401 93.83 60.9501C93.83 60.4601 93.67 60.0801 93.34 59.8101C93.02 59.5401 92.54 59.4101 91.91 59.4101H89.8L90.24 58.9201V62.9801Z" fill="white"/>
    <path d="M97.21 65.4201L100.32 58.5601H101.29L104.41 65.4201H103.38L100.61 59.1101H101L98.23 65.4201H97.21ZM98.53 63.7001L98.79 62.9201H102.65L102.93 63.7001H98.53Z" fill="white"/>
    <path d="M107.77 65.4201V58.5601H110.45C111.05 58.5601 111.56 58.6501 111.99 58.8401C112.41 59.0301 112.74 59.3001 112.97 59.6601C113.2 60.0201 113.31 60.4501 113.31 60.9401C113.31 61.4401 113.2 61.8601 112.97 62.2201C112.74 62.5801 112.41 62.8501 111.99 63.0401C111.57 63.2301 111.05 63.3201 110.45 63.3201H108.31L108.75 62.8701V65.4101H107.77V65.4201ZM108.75 62.9801L108.31 62.5001H110.42C111.05 62.5001 111.52 62.3601 111.85 62.0901C112.17 61.8201 112.34 61.4401 112.34 60.9501C112.34 60.4601 112.18 60.0801 111.85 59.8101C111.53 59.5401 111.05 59.4101 110.42 59.4101H108.31L108.75 58.9201V62.9801ZM112.36 65.4201L110.62 62.9301H111.67L113.43 65.4201H112.36Z" fill="white"/>
    <path d="M118.51 65.4201V59.4101H116.16V58.5601H121.84V59.4101H119.49V65.4201H118.51Z" fill="white"/>
    <path d="M126.24 64.5701H130.24V65.4201H125.26V58.5601H130.1V59.4101H126.24V64.5701ZM126.15 61.5201H129.68V62.3501H126.15V61.5201Z" fill="white"/>
    <path d="M134.18 65.4201V58.5601H134.98L139.52 64.2001H139.1V58.5601H140.08V65.4201H139.28L134.74 59.7801H135.16V65.4201H134.18Z" fill="white"/>
    <path d="M143.45 65.4201L146.56 58.5601H147.53L150.65 65.4201H149.62L146.85 59.1101H147.24L144.47 65.4201H143.45ZM144.77 63.7001L145.03 62.9201H148.89L149.17 63.7001H144.77Z" fill="white"/>
    <path d="M154.02 65.4201V58.5601H155V65.4201H154.02Z" fill="white"/>
    <path d="M159.41 65.4201V58.5601H162.09C162.69 58.5601 163.2 58.6501 163.63 58.8401C164.05 59.0301 164.38 59.3001 164.61 59.6601C164.84 60.0201 164.95 60.4501 164.95 60.9401C164.95 61.4401 164.84 61.8601 164.61 62.2201C164.38 62.5801 164.05 62.8501 163.63 63.0401C163.21 63.2301 162.69 63.3201 162.09 63.3201H159.95L160.39 62.8701V65.4101H159.41V65.4201ZM160.39 62.9801L159.95 62.5001H162.06C162.69 62.5001 163.16 62.3601 163.49 62.0901C163.81 61.8201 163.98 61.4401 163.98 60.9501C163.98 60.4601 163.82 60.0801 163.49 59.8101C163.17 59.5401 162.69 59.4101 162.06 59.4101H159.95L160.39 58.9201V62.9801ZM163.99 65.4201L162.25 62.9301H163.3L165.06 65.4201H163.99Z" fill="white"/>
    <path d="M169.86 64.5701H173.86V65.4201H168.88V58.5601H173.72V59.4101H169.86V64.5701ZM169.78 61.5201H173.31V62.3501H169.78V61.5201Z" fill="white"/>
    <path d="M182.79 65.4201V58.5601H185.68C186.41 58.5601 187.06 58.7001 187.62 58.9901C188.18 59.2801 188.61 59.6801 188.92 60.2001C189.23 60.7201 189.39 61.3101 189.39 61.9901C189.39 62.6701 189.23 63.2701 188.92 63.7801C188.61 64.3001 188.18 64.7001 187.62 64.9901C187.06 65.2801 186.42 65.4201 185.68 65.4201H182.79V65.4201ZM183.77 64.5701H185.62C186.19 64.5701 186.68 64.4601 187.09 64.2501C187.51 64.0301 187.83 63.7301 188.06 63.3401C188.29 62.9501 188.4 62.5001 188.4 61.9901C188.4 61.4701 188.29 61.0201 188.06 60.6401C187.83 60.2501 187.51 59.9501 187.09 59.7401C186.67 59.5201 186.18 59.4201 185.62 59.4201H183.77V64.5701Z" fill="white"/>
    <path d="M194.22 64.5701H198.22V65.4201H193.24V58.5601H198.08V59.4101H194.22V64.5701ZM194.13 61.5201H197.66V62.3501H194.13V61.5201Z" fill="white"/>
    <path d="M209.15 65.5C208.63 65.5 208.13 65.42 207.65 65.26C207.17 65.1 206.8 64.89 206.52 64.64L206.88 63.88C207.14 64.11 207.47 64.3 207.88 64.45C208.29 64.6 208.71 64.68 209.14 64.68C209.54 64.68 209.86 64.63 210.11 64.54C210.36 64.45 210.54 64.32 210.66 64.16C210.78 64 210.84 63.82 210.84 63.62C210.84 63.38 210.76 63.2 210.61 63.05C210.46 62.91 210.26 62.79 210.01 62.7C209.77 62.61 209.5 62.54 209.2 62.47C208.91 62.4 208.61 62.33 208.31 62.24C208.01 62.15 207.74 62.04 207.5 61.9C207.26 61.76 207.06 61.58 206.91 61.35C206.76 61.12 206.68 60.82 206.68 60.45C206.68 60.1 206.77 59.77 206.96 59.47C207.15 59.17 207.43 58.93 207.82 58.75C208.21 58.57 208.7 58.48 209.3 58.48C209.7 58.48 210.09 58.53 210.49 58.64C210.88 58.74 211.22 58.9 211.51 59.09L211.19 59.87C210.9 59.67 210.59 59.53 210.26 59.44C209.93 59.35 209.62 59.31 209.31 59.31C208.92 59.31 208.61 59.36 208.36 59.46C208.11 59.56 207.93 59.69 207.82 59.85C207.71 60.01 207.65 60.2 207.65 60.4C207.65 60.64 207.73 60.83 207.88 60.98C208.03 61.12 208.23 61.24 208.48 61.32C208.73 61.41 208.99 61.48 209.29 61.55C209.58 61.62 209.88 61.7 210.18 61.78C210.48 61.87 210.75 61.98 210.99 62.11C211.23 62.25 211.43 62.43 211.58 62.66C211.73 62.89 211.81 63.18 211.81 63.54C211.81 63.89 211.72 64.21 211.53 64.51C211.34 64.81 211.05 65.05 210.65 65.23C210.25 65.41 209.75 65.5 209.15 65.5Z" fill="white"/>
    <path d="M214.55 65.4201L217.66 58.5601H218.63L221.75 65.4201H220.72L217.95 59.1101H218.34L215.57 65.4201H214.55ZM215.87 63.7001L216.13 62.9201H220L220.28 63.7001H215.87Z" fill="white"/>
    <path d="M225.11 65.4201V58.5601H225.91L230.45 64.2001H230.03V58.5601H231.01V65.4201H230.21L225.67 59.7801H226.09V65.4201H225.11Z" fill="white"/>
    <path d="M236.79 65.4201V59.4101H234.44V58.5601H240.12V59.4101H237.77V65.4201H236.79Z" fill="white"/>
    <path d="M244.51 64.57H248.51V65.42H243.53V58.56H248.37V59.41H244.51V64.57V64.57ZM244.42 61.52H247.95V62.35H244.42V61.52ZM245.23 58L246.56 56.73H247.76L246.11 58H245.23Z" fill="white"/>
    <path d="M20.98 20.27C20.98 20.27 18.53 19.98 16.53 15.89C14.15 11.02 15.85 8.99996 18.31 7.78996L18.37 7.75996C20.84 6.55996 23.47 6.45996 25.85 11.33C27.85 15.42 26.57 17.54 26.57 17.54C26.57 17.54 29.91 16.01 33.84 10.04C34.39 9.20996 34.38 8.12996 33.83 7.30996C31.28 3.45996 25.44 1.59996 19.64 0.659962C11.33 -0.690038 9.13002 3.12996 7.79002 11.44C7.22002 14.95 8.47002 17.85 10.74 20.13C11.65 21.05 12.9 21.53 14.19 21.5C18.83 21.39 20.98 20.27 20.98 20.27Z" fill="white"/>
    <path d="M31.02 38.3899C24.15 24.3299 10.82 26.7599 6.16001 28.1199C5.16001 28.4099 4.23001 28.9299 3.47001 29.6499L3.46001 29.6599C2.38001 30.6699 1.54001 31.9099 1.05001 33.3099C0.0600097 36.1399 0.0200109 39.5499 0.520011 45.0299C1.72001 58.1599 15.04 62.2999 26.38 61.2699C27.2 61.1899 27.97 61.0799 28.68 60.9199C31.15 60.3699 33.07 58.4499 33.59 55.9699C34.44 51.9699 34.63 45.7699 31.02 38.3899Z" fill="white"/>
    <path d="M57.08 8.47996C53.13 5.98996 50.9 5.17996 47.6 5.62996C46.36 5.83996 45.2 6.33996 44.19 7.08996C40.07 10.15 30.6 19.07 37.3 32.79C39.83 37.97 43.05 41.32 46.02 43.48C46.9 44.12 47.93 44.5 49.01 44.6C57.88 45.44 65.85 39.1 70.5 31.72C76.57 22.09 69.07 16.03 57.08 8.47996Z" fill="white"/>
</svg>
